<svg xmlns="http://www.w3.org/2000/svg" width="174" height="48" viewBox="0 0 174 48">
  <g id="Logo" transform="translate(-782 -233.999)">
    <g id="Grupo_544" data-name="Grupo 544" transform="translate(782 233.999)">
      <path id="Caminho_7" data-name="Caminho 7" d="M369.923,294.844l-22.347-14.131a9.788,9.788,0,0,0-14.976,8.408V309.61a9.012,9.012,0,0,0,10.053-2.621,1.234,1.234,0,0,1,1.793-.039l1.75,1.772a1.159,1.159,0,0,1-.17,1.769c-2.446,1.66-7.653,6.077-5.33,14.516q.024.088.041.176a2.393,2.393,0,0,0,2.5,2,9.657,9.657,0,0,0,4.315-1.468L369.9,311.676A9.979,9.979,0,0,0,369.923,294.844Zm-26.409,9.344-1.386-.217a.938.938,0,0,1-.712-.553.958.958,0,0,1,.075-.906l1.746-2.673a1.348,1.348,0,0,1,1.029-.613l1.514-.119A12.643,12.643,0,0,0,343.513,304.188Zm5.035,4.653a.891.891,0,0,1-.633-.267l-3.178-3.218a.911.911,0,0,1-.252-.787,10.256,10.256,0,0,1,.589-2.1l5.7,5.767a9.944,9.944,0,0,1-2.078.6.869.869,0,0,1-.145.013Zm5.422.212a1.371,1.371,0,0,1-.605,1.042l-2.64,1.768a.926.926,0,0,1-.894.076.946.946,0,0,1-.546-.721l-.214-1.4a12.335,12.335,0,0,0,5.018-2.294Zm3.442-6.88a13.993,13.993,0,0,1-5.652,5.6.54.54,0,0,0-.041-.048l-6.142-6.219a.492.492,0,0,0-.048-.042,13.989,13.989,0,0,1,5.531-5.723,13.381,13.381,0,0,1,6.112-1.411c.291,0,.548.009.766.021a.9.9,0,0,1,.846.858,14.134,14.134,0,0,1-1.373,6.964Z" transform="translate(-332.6 -279.193)" fill="#63bcbc"/>
      <path id="Caminho_8" data-name="Caminho 8" d="M421.624,366.982a2.542,2.542,0,1,0,1.809-.757A2.559,2.559,0,0,0,421.624,366.982Zm2.9,2.9a1.536,1.536,0,1,1,.45-1.086A1.536,1.536,0,0,1,424.519,369.877Z" transform="translate(-402.732 -348.085)" fill="#63bcbc"/>
    </g>
    <g id="Grupo_2" data-name="Grupo 2" transform="translate(829.775 243.579)">
      <path id="Caminho_1" data-name="Caminho 1" d="M290.591,556.347v4.272h-.719v-9.146h3.279c1.8,0,2.757.966,2.757,2.4a2.07,2.07,0,0,1-1.712,2.143c.941.222,1.568.836,1.568,2.391v.353a6.093,6.093,0,0,0,.118,1.855h-.719a6.113,6.113,0,0,1-.131-1.908v-.235c0-1.5-.444-2.13-2.195-2.13Zm0-.653H292.8c1.607,0,2.352-.6,2.352-1.8,0-1.123-.732-1.764-2.156-1.764h-2.4Z" transform="translate(-260.038 -551.342)" fill="#ececec"/>
      <path id="Caminho_2" data-name="Caminho 2" d="M348.071,555.476c0,2.5-1.333,4.768-4.155,4.768-2.574,0-4.076-2.077-4.076-4.7,0-2.587,1.45-4.7,4.168-4.7C346.516,550.837,348.071,552.81,348.071,555.476Zm-7.473.026c0,2.1,1.163,4.09,3.358,4.09,2.364,0,3.358-1.934,3.358-4.1,0-2.13-1.124-4-3.332-4C341.63,551.491,340.6,553.437,340.6,555.5Z" transform="translate(-299.736 -550.837)" fill="#ececec"/>
      <path id="Caminho_3" data-name="Caminho 3" d="M407.168,557.675a3.34,3.34,0,0,1-3.436,2.549c-2.626,0-4.011-2.09-4.011-4.664,0-2.469,1.359-4.716,4.024-4.716a3.2,3.2,0,0,1,3.436,2.626h-.706a2.648,2.648,0,0,0-2.77-1.973c-2.273,0-3.227,2.077-3.227,4.05s.941,4.024,3.279,4.024a2.683,2.683,0,0,0,2.7-1.894Z" transform="translate(-347.31 -550.842)" fill="#ececec"/>
      <path id="Caminho_4" data-name="Caminho 4" d="M458.266,551.475h.706v4.755c.732-.705,3.345-3.162,4.978-4.755h.941l-4.1,3.893,4.338,5.252h-.876l-3.972-4.795-1.307,1.149v3.645h-.706Z" transform="translate(-393.822 -551.344)" fill="#ececec"/>
      <path id="Caminho_5" data-name="Caminho 5" d="M516.08,556.12h-4.664v3.841h5.109l-.1.653h-5.71v-9.146h5.6v.653h-4.9v3.345h4.664Z" transform="translate(-435.489 -551.338)" fill="#ececec"/>
      <path id="Caminho_6" data-name="Caminho 6" d="M559.8,552.128h-3.07v-.653H563.6v.653h-3.083v8.492H559.8Z" transform="translate(-472.051 -551.344)" fill="#ececec"/>
      <circle id="Elipse_1" data-name="Elipse 1" cx="1.747" cy="1.747" r="1.747" transform="translate(122.731 15.024)" fill="#63bcbc"/>
      <path id="Caminho_9" data-name="Caminho 9" d="M158.171,625.681v.431a1.97,1.97,0,0,1-1.97,1.97h-3.558v10.436a.621.621,0,0,1-.62.62h-1.16a.621.621,0,0,1-.62-.62V628.082h-3.557a1.97,1.97,0,0,1-1.97-1.97v-.431Z" transform="translate(-144.714 -610.299)" fill="#ececec"/>
      <path id="Caminho_10" data-name="Caminho 10" d="M229.741,644.229h-1.058a2.675,2.675,0,0,1-2.381-1.456l-.486-.95-2.466-4.844a.526.526,0,0,0-.937,0l-2.466,4.844-.534,1.047a2.5,2.5,0,0,1-2.224,1.36H216.02l1.224-2.407L221.9,632.7a1.106,1.106,0,0,1,1.97,0l4.652,9.125Z" transform="translate(-201.365 -615.393)" fill="#ececec"/>
      <path id="Caminho_11" data-name="Caminho 11" d="M315.843,638.894v.19h-6.82a4.257,4.257,0,0,1-1.887-.439,4.334,4.334,0,0,1-2.4-3.846v-9.171h.719a1.679,1.679,0,0,1,1.679,1.679v7.732a1.917,1.917,0,0,0,1.647,1.647h4.852a2.208,2.208,0,0,1,2.209,2.209Z" transform="translate(-271.848 -610.256)" fill="#ececec"/>
      <path id="Caminho_12" data-name="Caminho 12" d="M389.206,629.261v1.249a0,0,0,0,0,0,0h8.653a0,0,0,0,1,0,0v.09a2.305,2.305,0,0,1-2.3,2.3h-6.351a0,0,0,0,0,0,0v2.536a1.247,1.247,0,0,0,1.243,1.243h7.44a2.375,2.375,0,0,1,2.375,2.375v.02a0,0,0,0,1,0,0h-9.823a3.633,3.633,0,0,1-3.633-3.633v-6.19a3.641,3.641,0,0,1,3.642-3.642h9.814v0h0a2.4,2.4,0,0,1-2.4,2.4h-7.428A1.235,1.235,0,0,0,389.206,629.261Z" transform="translate(-337.051 -610.256)" fill="#ececec"/>
      <path id="Caminho_13" data-name="Caminho 13" d="M493.854,625.626v13.465l-2.407-1.855-8.651-6.668v6.417a2.106,2.106,0,0,1-2.106,2.106h-.3V625.675l2.407,1.855,8.651,6.668v-6.6a1.968,1.968,0,0,1,1.968-1.968Z" transform="translate(-411.399 -610.255)" fill="#ececec"/>
      <path id="Caminho_14" data-name="Caminho 14" d="M587.427,625.682v.29a2.112,2.112,0,0,1-2.112,2.112H581.9v10.448a.609.609,0,0,1-.609.609h-1.184a.609.609,0,0,1-.609-.609V628.083h-3.416a2.112,2.112,0,0,1-2.112-2.112v-.29Z" transform="translate(-485.746 -610.299)" fill="#ececec"/>
      <path id="Caminho_15" data-name="Caminho 15" d="M679.158,631.962a4.225,4.225,0,0,0-3.142-1.391h-4.837a1.231,1.231,0,0,1-1.231-1.231v-.072a1.231,1.231,0,0,1,1.231-1.231h5.469a1.231,1.231,0,0,1,1.085.649,1.443,1.443,0,0,0,1.153.655h1.319a.072.072,0,0,0,.072-.072,3.638,3.638,0,0,0-3.638-3.638h-5.453a3.638,3.638,0,0,0-3.638,3.638v.072a3.59,3.59,0,0,0,.648,2.063,3.185,3.185,0,0,0,.473.56,3.566,3.566,0,0,0,2.51,1.016h4.836a1.862,1.862,0,0,1,1.843,2.133,1.9,1.9,0,0,1-1.9,1.577H671.8a1.856,1.856,0,0,1-1.685-1.078,1.344,1.344,0,0,0-1.222-.777h-1.348a4.252,4.252,0,0,0,4.254,4.254h4.131a4.313,4.313,0,0,0,4.31-3.709,4.243,4.243,0,0,0-.925-3.231A1.15,1.15,0,0,0,679.158,631.962Z" transform="translate(-560.091 -610.258)" fill="#ececec"/>
      <circle id="Elipse_2" data-name="Elipse 2" cx="1.13" cy="1.13" r="1.13" transform="translate(20.463 26.123)" fill="#6bcecc"/>
    </g>
  </g>
</svg>
